<svg xmlns="http://www.w3.org/2000/svg" xmlns:xlink="http://www.w3.org/1999/xlink" zoomAndPan="magnify" viewBox="0 0 960 599.999999"  preserveAspectRatio="xMidYMid meet" version="1.0"><defs><clipPath id="1336867f8f"><path d="M 272.148438 44.183594 L 687.851562 44.183594 L 687.851562 556 L 272.148438 556 Z M 272.148438 44.183594 " clip-rule="nonzero"/></clipPath><clipPath id="9ee867476d"><path d="M 410.789062 543.8125 C 432.101562 551.0625 456.332031 555.816406 480.113281 555.816406 C 503.894531 555.816406 526.777344 551.742188 547.863281 544.492188 C 548.3125 544.265625 548.761719 544.265625 549.210938 544.039062 C 628.402344 515.050781 686.730469 438.496094 687.851562 349.035156 L 687.851562 44.183594 L 272.148438 44.183594 L 272.148438 348.808594 C 273.269531 438.949219 330.699219 515.503906 410.789062 543.8125 Z M 410.789062 543.8125 " clip-rule="nonzero"/></clipPath><clipPath id="4583c0e284"><path d="M 314.84375 84.332031 L 645.15625 84.332031 L 645.15625 491 L 314.84375 491 Z M 314.84375 84.332031 " clip-rule="nonzero"/></clipPath><clipPath id="3b815188d1"><path d="M 425.007812 481.335938 C 441.941406 487.09375 461.195312 490.871094 480.089844 490.871094 C 498.984375 490.871094 517.167969 487.632812 533.921875 481.875 C 534.28125 481.695312 534.636719 481.695312 534.992188 481.515625 C 597.917969 458.480469 644.265625 397.652344 645.15625 326.566406 L 645.15625 84.332031 L 314.84375 84.332031 L 314.84375 326.386719 C 315.734375 398.011719 361.367188 458.839844 425.007812 481.335938 Z M 425.007812 481.335938 " clip-rule="nonzero"/></clipPath><clipPath id="41b64f22bd"><path d="M 387.667969 158 L 571 158 L 571 341.367188 L 387.667969 341.367188 Z M 387.667969 158 " clip-rule="nonzero"/></clipPath></defs><g clip-path="url(#1336867f8f)"><g clip-path="url(#9ee867476d)"><path fill="#800000" d="M 272.148438 44.183594 L 687.851562 44.183594 L 687.851562 555.691406 L 272.148438 555.691406 Z M 272.148438 44.183594 " fill-opacity="1" fill-rule="nonzero"/></g></g><g clip-path="url(#4583c0e284)"><g clip-path="url(#3b815188d1)"><path fill="#ebdad3" d="M 314.84375 84.332031 L 645.15625 84.332031 L 645.15625 490.773438 L 314.84375 490.773438 Z M 314.84375 84.332031 " fill-opacity="1" fill-rule="nonzero"/></g></g><g clip-path="url(#41b64f22bd)"><path fill="#000000" d="M 387.667969 303.175781 L 387.667969 341.367188 L 425.863281 341.367188 L 538.554688 228.675781 L 500.359375 190.484375 Z M 567.984375 199.242188 C 571.957031 195.269531 571.957031 188.804688 567.984375 184.832031 L 544.207031 161.050781 C 540.234375 157.078125 533.765625 157.078125 529.792969 161.050781 L 511.15625 179.6875 L 549.347656 217.878906 Z M 567.984375 199.242188 " fill-opacity="1" fill-rule="nonzero"/></g></svg>