<svg xmlns="http://www.w3.org/2000/svg" xmlns:xlink="http://www.w3.org/1999/xlink" zoomAndPan="magnify" viewBox="0 0 960 599.999999" preserveAspectRatio="xMidYMid meet" version="1.0"><defs><clipPath id="f815ad9867"><path d="M 263.863281 47.980469 L 679.828125 47.980469 L 679.828125 560 L 263.863281 560 Z M 263.863281 47.980469 " clip-rule="nonzero"/></clipPath><clipPath id="5780a2bb8b"><path d="M 402.59375 547.925781 C 423.917969 555.175781 448.164062 559.9375 471.957031 559.9375 C 495.753906 559.9375 518.648438 555.855469 539.75 548.605469 C 540.199219 548.378906 540.648438 548.378906 541.097656 548.152344 C 620.339844 519.140625 678.703125 442.542969 679.828125 353.023438 L 679.828125 47.980469 L 263.863281 47.980469 L 263.863281 352.796875 C 264.984375 442.996094 322.453125 519.597656 402.59375 547.925781 Z M 402.59375 547.925781 " clip-rule="nonzero"/></clipPath><clipPath id="3c94713743"><path d="M 310.324219 88.15625 L 640.84375 88.15625 L 640.84375 495 L 310.324219 495 Z M 310.324219 88.15625 " clip-rule="nonzero"/></clipPath><clipPath id="f5f7ffdecb"><path d="M 420.554688 485.40625 C 437.5 491.167969 456.765625 494.949219 475.671875 494.949219 C 494.582031 494.949219 512.773438 491.707031 529.539062 485.945312 C 529.898438 485.765625 530.253906 485.765625 530.609375 485.585938 C 593.574219 462.535156 639.953125 401.667969 640.84375 330.539062 L 640.84375 88.15625 L 310.324219 88.15625 L 310.324219 330.359375 C 311.214844 402.03125 356.878906 462.894531 420.554688 485.40625 Z M 420.554688 485.40625 " clip-rule="nonzero"/></clipPath><clipPath id="01d937fbaa"><path d="M 391.9375 156.847656 L 558.824219 156.847656 L 558.824219 372.671875 L 391.9375 372.671875 Z M 391.9375 156.847656 " clip-rule="nonzero"/></clipPath></defs><g clip-path="url(#f815ad9867)"><g clip-path="url(#5780a2bb8b)"><path fill="#800000" d="M 263.863281 47.980469 L 679.828125 47.980469 L 679.828125 559.8125 L 263.863281 559.8125 Z M 263.863281 47.980469 " fill-opacity="1" fill-rule="nonzero"/></g></g><g clip-path="url(#3c94713743)"><g clip-path="url(#f5f7ffdecb)"><path fill="#ebdad3" d="M 310.324219 88.15625 L 640.84375 88.15625 L 640.84375 494.851562 L 310.324219 494.851562 Z M 310.324219 88.15625 " fill-opacity="1" fill-rule="nonzero"/></g></g><g clip-path="url(#01d937fbaa)"><path fill="#000000" d="M 558.824219 356.371094 C 558.824219 298.777344 521.4375 252.117188 475.382812 252.117188 C 429.328125 252.117188 391.9375 298.777344 391.9375 356.371094 C 391.9375 365.351562 429.328125 372.671875 475.382812 372.671875 C 521.4375 372.671875 558.824219 365.351562 558.824219 356.371094 Z M 475.382812 156.847656 C 500.5 156.847656 520.851562 177.25 520.851562 202.433594 C 520.851562 227.617188 500.5 248.019531 475.382812 248.019531 C 450.261719 248.019531 429.910156 227.617188 429.910156 202.433594 C 429.910156 177.25 450.261719 156.847656 475.382812 156.847656 Z M 475.382812 156.847656 " fill-opacity="1" fill-rule="evenodd"/></g></svg>